Adsworth-GRADmax.ufo
<glyph name="quotesingle" format="2">
  <advance width="581"/>
  <unicode hex="0027"/>
  <outline>
    <contour>
      <point x="94" y="862" type="line"/>
      <point x="94" y="1500" type="line"/>
      <point x="487" y="1500" type="line"/>
      <point x="487" y="862" type="line"/>
    </contour>
  </outline>
</glyph>
<glyph name="parenleft" format="2">
  <advance width="692"/>
  <unicode hex="0028"/>
  <outline>
    <contour>
      <point x="412.0" y="-337.0" type="line"/>
      <point x="26" y="103.0"/>
      <point x="26" y="1127.0"/>
      <point x="407" y="1581.0" type="qcurve"/>
      <point x="712" y="1384.0" type="line"/>
      <point x="492" y="1016.0"/>
      <point x="492" y="187.0"/>
      <point x="715" y="-161.0" type="qcurve"/>
    </contour>
  </outline>
</glyph>
<glyph name="zero" format="2">
  <advance width="1239"/>
  <unicode hex="0030"/>
  <outline>
    <contour>
      <point x="618" y="-25.0" type="line" smooth="yes"/>
      <point x="350.0" y="-25"/>
      <point x="35" y="402"/>
      <point x="35" y="724.0" type="qcurve" smooth="yes"/>
      <point x="35" y="775.0" type="line" smooth="yes"/>
      <point x="35" y="1097"/>
      <point x="346.0" y="1524.0"/>
      <point x="614" y="1524.0" type="qcurve" smooth="yes"/>
      <point x="621" y="1524.0" type="line" smooth="yes"/>
      <point x="895.0" y="1524.0"/>
      <point x="1204" y="1097"/>
      <point x="1204" y="775.0" type="qcurve" smooth="yes"/>
      <point x="1204" y="724.0" type="line" smooth="yes"/>
      <point x="1204" y="402"/>
      <point x="899.0" y="-25.0"/>
      <point x="625" y="-25.0" type="qcurve" smooth="yes"/>
    </contour>
    <contour>
      <point x="618.0" y="268" type="line" smooth="yes"/>
      <point x="675.0" y="268.0"/>
      <point x="716.0" y="406.0"/>
      <point x="716.0" y="564" type="qcurve" smooth="yes"/>
      <point x="716.0" y="941" type="line" smooth="yes"/>
      <point x="716.0" y="1092.0"/>
      <point x="675.0" y="1221.0"/>
      <point x="618.0" y="1221" type="qcurve" smooth="yes"/>
      <point x="616.0" y="1221" type="line" smooth="yes"/>
      <point x="562.0" y="1221.0"/>
      <point x="523.0" y="1092.0"/>
      <point x="523.0" y="941" type="qcurve" smooth="yes"/>
      <point x="523.0" y="564" type="line" smooth="yes"/>
      <point x="523.0" y="406.0"/>
      <point x="561.0" y="268"/>
      <point x="616.0" y="268" type="qcurve" smooth="yes"/>
    </contour>
  </outline>
</glyph>
<glyph name="one" format="2">
  <advance width="584"/>
  <unicode hex="0031"/>
  <outline>
    <contour>
      <point x="74" y="0" type="line"/>
      <point x="74" y="1500" type="line"/>
      <point x="510" y="1500" type="line"/>
      <point x="510" y="0" type="line"/>
    </contour>
  </outline>
</glyph>
<glyph name="two" format="2">
  <advance width="930"/>
  <unicode hex="0032"/>
  <outline>
    <contour>
      <point x="925" y="0" type="line"/>
      <point x="5" y="0" type="line"/>
      <point x="5.0" y="300" type="line"/>
      <point x="438.0" y="951" type="line" smooth="yes"/>
      <point x="464" y="990"/>
      <point x="507" y="1056"/>
      <point x="507" y="1097" type="qcurve" smooth="yes"/>
      <point x="507" y="1125" type="line" smooth="yes"/>
      <point x="507.0" y="1159.0"/>
      <point x="472" y="1195"/>
      <point x="450" y="1195" type="qcurve" smooth="yes"/>
      <point x="446" y="1195" type="line" smooth="yes"/>
      <point x="424.0" y="1195.0"/>
      <point x="395.0" y="1155"/>
      <point x="395" y="1118" type="qcurve" smooth="yes"/>
      <point x="395" y="1038" type="line"/>
      <point x="-1" y="1040" type="line"/>
      <point x="-1" y="1139" type="line" smooth="yes"/>
      <point x="-1" y="1306"/>
      <point x="246" y="1524"/>
      <point x="453" y="1524" type="qcurve" smooth="yes"/>
      <point x="472" y="1524" type="line" smooth="yes"/>
      <point x="696" y="1524"/>
      <point x="928.0" y="1322.0"/>
      <point x="928" y="1166.0" type="qcurve" smooth="yes"/>
      <point x="928" y="1159.0" type="line" smooth="yes"/>
      <point x="928" y="1041"/>
      <point x="863" y="897"/>
      <point x="824" y="838.0" type="qcurve" smooth="yes"/>
      <point x="496" y="335.0" type="line"/>
      <point x="925" y="335" type="line"/>
    </contour>
  </outline>
</glyph>
<glyph name="four" format="2">
  <advance width="1009"/>
  <unicode hex="0034"/>
  <outline>
    <contour>
      <point x="547" y="0" type="line"/>
      <point x="547" y="1504" type="line"/>
      <point x="947" y="1501" type="line"/>
      <point x="947" y="2" type="line"/>
    </contour>
    <contour>
      <point x="1033" y="617" type="line"/>
      <point x="1033" y="288" type="line"/>
      <point x="9" y="288" type="line"/>
      <point x="-37" y="620" type="line"/>
      <point x="569" y="1506" type="line"/>
      <point x="831" y="1295" type="line"/>
      <point x="346" y="617" type="line"/>
    </contour>
  </outline>
</glyph>
<glyph name="eight" format="2">
  <advance width="1028"/>
  <unicode hex="0038"/>
  <outline>
    <contour>
      <point x="507" y="-27" type="line" smooth="yes"/>
      <point x="307" y="-27"/>
      <point x="20" y="218"/>
      <point x="20" y="413" type="qcurve" smooth="yes"/>
      <point x="20" y="444" type="line" smooth="yes"/>
      <point x="20" y="641"/>
      <point x="304" y="896"/>
      <point x="503" y="896" type="qcurve" smooth="yes"/>
      <point x="510" y="896" type="line" smooth="yes"/>
      <point x="714" y="896"/>
      <point x="1008" y="641"/>
      <point x="1008" y="444" type="qcurve" smooth="yes"/>
      <point x="1008" y="413" type="line" smooth="yes"/>
      <point x="1008" y="218"/>
      <point x="718" y="-27"/>
      <point x="513" y="-27" type="qcurve" smooth="yes"/>
    </contour>
    <contour>
      <point x="505.0" y="269" type="line" smooth="yes"/>
      <point x="553.0" y="269"/>
      <point x="611.0" y="370"/>
      <point x="611.0" y="454" type="qcurve" smooth="yes"/>
      <point x="611.0" y="466" type="line" smooth="yes"/>
      <point x="611.0" y="550"/>
      <point x="554.0" y="655"/>
      <point x="505.0" y="655" type="qcurve" smooth="yes"/>
      <point x="503.0" y="655" type="line" smooth="yes"/>
      <point x="457.0" y="655"/>
      <point x="402.0" y="550"/>
      <point x="402.0" y="466" type="qcurve" smooth="yes"/>
      <point x="402.0" y="454" type="line" smooth="yes"/>
      <point x="402.0" y="370"/>
      <point x="456.0" y="269"/>
      <point x="503.0" y="269" type="qcurve" smooth="yes"/>
    </contour>
    <contour>
      <point x="507.0" y="704" type="line" smooth="yes"/>
      <point x="329.0" y="704"/>
      <point x="68.0" y="922"/>
      <point x="68.0" y="1095" type="qcurve" smooth="yes"/>
      <point x="68.0" y="1122" type="line" smooth="yes"/>
      <point x="68.0" y="1296"/>
      <point x="325.0" y="1523"/>
      <point x="503.0" y="1523" type="qcurve" smooth="yes"/>
      <point x="510.0" y="1523" type="line" smooth="yes"/>
      <point x="693.0" y="1523"/>
      <point x="960.0" y="1296"/>
      <point x="960.0" y="1122" type="qcurve" smooth="yes"/>
      <point x="960.0" y="1095" type="line" smooth="yes"/>
      <point x="960.0" y="922"/>
      <point x="696.0" y="704"/>
      <point x="514.0" y="704" type="qcurve" smooth="yes"/>
    </contour>
    <contour>
      <point x="512.0" y="909" type="line" smooth="yes"/>
      <point x="556.0" y="909"/>
      <point x="608.0" y="990"/>
      <point x="608.0" y="1058" type="qcurve" smooth="yes"/>
      <point x="608.0" y="1068" type="line" smooth="yes"/>
      <point x="608.0" y="1135"/>
      <point x="557.0" y="1219"/>
      <point x="512.0" y="1219" type="qcurve" smooth="yes"/>
      <point x="510.0" y="1219" type="line" smooth="yes"/>
      <point x="468.0" y="1219"/>
      <point x="419.0" y="1135"/>
      <point x="419.0" y="1068" type="qcurve" smooth="yes"/>
      <point x="419.0" y="1058" type="line" smooth="yes"/>
      <point x="419.0" y="990"/>
      <point x="468.0" y="909"/>
      <point x="510.0" y="909" type="qcurve" smooth="yes"/>
    </contour>
  </outline>
</glyph>
<glyph name="equal" format="2">
  <advance width="1500"/>
  <unicode hex="003D"/>
  <outline>
    <contour>
      <point x="1226" y="260" type="line"/>
      <point x="266" y="260" type="line"/>
      <point x="266" y="603" type="line"/>
      <point x="1226" y="603" type="line"/>
    </contour>
    <contour>
      <point x="1226" y="710" type="line"/>
      <point x="266" y="710" type="line"/>
      <point x="266" y="1055" type="line"/>
      <point x="1226" y="1055" type="line"/>
    </contour>
  </outline>
</glyph>
<glyph name="at" format="2">
  <advance width="1801"/>
  <unicode hex="0040"/>
  <outline>
    <contour>
      <point x="1172" y="741" type="qcurve" smooth="yes"/>
      <point x="1167" y="712" type="line" smooth="yes"/>
      <point x="1135" y="525"/>
      <point x="943" y="301"/>
      <point x="777" y="301" type="qcurve" smooth="yes"/>
      <point x="771" y="301" type="line" smooth="yes"/>
      <point x="592" y="301"/>
      <point x="432" y="586"/>
      <point x="463" y="764" type="qcurve" smooth="yes"/>
      <point x="468" y="793" type="line" smooth="yes"/>
      <point x="499" y="975"/>
      <point x="729" y="1171"/>
      <point x="887" y="1171" type="qcurve" smooth="yes"/>
      <point x="894" y="1171" type="line" smooth="yes"/>
      <point x="1052" y="1171"/>
      <point x="1204" y="927"/>
    </contour>
    <contour>
      <point x="1038" y="724.0" type="line" smooth="yes"/>
      <point x="1061.0" y="833.0"/>
      <point x="1018" y="962.0"/>
      <point x="957" y="962.0" type="qcurve" smooth="yes"/>
      <point x="953" y="962.0" type="line" smooth="yes"/>
      <point x="880" y="962.0"/>
      <point x="799" y="855.0"/>
      <point x="780" y="752.0" type="qcurve" smooth="yes"/>
      <point x="776" y="736.0" type="line" smooth="yes"/>
      <point x="755" y="631.0"/>
      <point x="800" y="490.0"/>
      <point x="857" y="490.0" type="qcurve" smooth="yes"/>
      <point x="861" y="490.0" type="line" smooth="yes"/>
      <point x="929" y="490.0"/>
      <point x="1013" y="599.0"/>
      <point x="1035" y="707.0" type="qcurve" smooth="yes"/>
    </contour>
    <contour>
      <point x="1047" y="614" type="qcurve" smooth="yes"/>
      <point x="1128" y="1125" type="line"/>
      <point x="1397" y="1125" type="line"/>
      <point x="1313" y="660" type="line" smooth="yes"/>
      <point x="1302" y="600"/>
      <point x="1344" y="533"/>
      <point x="1387" y="533" type="qcurve"/>
      <point x="1454" y="533"/>
      <point x="1553.0" y="660"/>
      <point x="1553.0" y="802" type="qcurve" smooth="yes"/>
      <point x="1553.0" y="998"/>
      <point x="1227.0" y="1302"/>
      <point x="939.0" y="1302" type="qcurve" smooth="yes"/>
      <point x="657.0" y="1302"/>
      <point x="307.0" y="973"/>
      <point x="307.0" y="702" type="qcurve" smooth="yes"/>
      <point x="307.0" y="412"/>
      <point x="652" y="97"/>
      <point x="923.0" y="97" type="qcurve" smooth="yes"/>
      <point x="1114.0" y="97"/>
      <point x="1404.0" y="218"/>
      <point x="1456.0" y="263" type="qcurve"/>
      <point x="1594" y="98.0" type="line"/>
      <point x="1484" y="1.0"/>
      <point x="1140" y="-102.0"/>
      <point x="912" y="-102.0" type="qcurve" smooth="yes"/>
      <point x="550" y="-102.0"/>
      <point x="40" y="322.0"/>
      <point x="40" y="715.0" type="qcurve" smooth="yes"/>
      <point x="40" y="1077.0"/>
      <point x="584" y="1524.0"/>
      <point x="936" y="1524.0" type="qcurve" smooth="yes"/>
      <point x="1286" y="1524.0"/>
      <point x="1803" y="1156"/>
      <point x="1803" y="836.0" type="qcurve" smooth="yes"/>
      <point x="1803.0" y="618"/>
      <point x="1526" y="319"/>
      <point x="1307" y="319" type="qcurve" smooth="yes"/>
      <point x="1171" y="319"/>
      <point x="1024" y="472"/>
    </contour>
  </outline>
</glyph>
<glyph name="G" format="2">
  <advance width="1505"/>
  <unicode hex="0047"/>
  <outline>
    <contour>
      <point x="787.0" y="261" type="line" smooth="yes"/>
      <point x="887.0" y="261.0"/>
      <point x="992.0" y="353.0"/>
      <point x="992.0" y="442" type="qcurve" smooth="yes"/>
      <point x="993.0" y="518.0" type="line"/>
      <point x="846" y="518.0" type="line"/>
      <point x="846" y="829.0" type="line"/>
      <point x="1449" y="829.0" type="line"/>
      <point x="1444" y="540.0" type="line" smooth="yes"/>
      <point x="1439" y="270"/>
      <point x="1113" y="-25.0"/>
      <point x="796" y="-25.0" type="qcurve" smooth="yes"/>
      <point x="784" y="-25.0" type="line" smooth="yes"/>
      <point x="448" y="-25.0"/>
      <point x="52" y="373.0"/>
      <point x="52" y="724.0" type="qcurve" smooth="yes"/>
      <point x="52" y="775.0" type="line" smooth="yes"/>
      <point x="52" y="1131.0"/>
      <point x="457" y="1524.0"/>
      <point x="756" y="1524.0" type="qcurve" smooth="yes"/>
      <point x="768" y="1524.0" type="line" smooth="yes"/>
      <point x="1061" y="1524.0"/>
      <point x="1392" y="1249.0"/>
      <point x="1406" y="1018.0" type="qcurve" smooth="yes"/>
      <point x="1409" y="935.0" type="line"/>
      <point x="964" y="935.0" type="line"/>
      <point x="962.0" y="994" type="line" smooth="yes"/>
      <point x="958" y="1102"/>
      <point x="863.0" y="1223"/>
      <point x="776.0" y="1223" type="qcurve" smooth="yes"/>
      <point x="771.0" y="1223" type="line" smooth="yes"/>
      <point x="663.0" y="1223.0"/>
      <point x="557.0" y="1024.0"/>
      <point x="557.0" y="838" type="qcurve" smooth="yes"/>
      <point x="557.0" y="652" type="line" smooth="yes"/>
      <point x="557.0" y="469.0"/>
      <point x="662.0" y="261"/>
      <point x="784.0" y="261" type="qcurve" smooth="yes"/>
    </contour>
  </outline>
</glyph>
<glyph name="M" format="2">
  <advance width="1814"/>
  <unicode hex="004D"/>
  <outline>
    <contour>
      <point x="106" y="0" type="line"/>
      <point x="106" y="1500" type="line"/>
      <point x="677" y="1500" type="line"/>
      <point x="923" y="615" type="line"/>
      <point x="936" y="615" type="line"/>
      <point x="1170" y="1500" type="line"/>
      <point x="1708" y="1500" type="line"/>
      <point x="1708" y="0" type="line"/>
      <point x="1302" y="0" type="line"/>
      <point x="1302" y="775" type="line"/>
      <point x="1111" y="0" type="line"/>
      <point x="713" y="0" type="line"/>
      <point x="522" y="775" type="line"/>
      <point x="522" y="0" type="line"/>
    </contour>
  </outline>
</glyph>
<glyph name="N" format="2">
  <advance width="1439"/>
  <unicode hex="004E"/>
  <outline>
    <contour>
      <point x="106" y="0" type="line"/>
      <point x="106" y="1500" type="line"/>
      <point x="547" y="1498" type="line"/>
      <point x="912" y="835" type="line"/>
      <point x="912" y="1500" type="line"/>
      <point x="1333" y="1500" type="line"/>
      <point x="1333" y="0" type="line"/>
      <point x="892" y="0" type="line"/>
      <point x="892" y="63" type="line"/>
      <point x="527" y="678" type="line"/>
      <point x="527" y="0" type="line"/>
    </contour>
  </outline>
</glyph>
<glyph name="R" format="2">
  <advance width="1300"/>
  <unicode hex="0052"/>
  <outline>
    <contour>
      <point x="106" y="0" type="line"/>
      <point x="106" y="1500" type="line"/>
      <point x="572" y="1500" type="line"/>
      <point x="572" y="0" type="line"/>
    </contour>
    <contour>
      <point x="843" y="603" type="qcurve" smooth="yes"/>
      <point x="352" y="603" type="line"/>
      <point x="352" y="883" type="line"/>
      <point x="663.0" y="883" type="line" smooth="yes"/>
      <point x="730.0" y="883.0"/>
      <point x="800.0" y="966"/>
      <point x="800.0" y="1047" type="qcurve" smooth="yes"/>
      <point x="800.0" y="1056" type="line" smooth="yes"/>
      <point x="800.0" y="1129"/>
      <point x="727.0" y="1197.0"/>
      <point x="671.0" y="1197" type="qcurve" smooth="yes"/>
      <point x="352" y="1197" type="line"/>
      <point x="352" y="1500" type="line"/>
      <point x="842" y="1500" type="line" smooth="yes"/>
      <point x="1029.0" y="1500.0"/>
      <point x="1276.0" y="1288.0"/>
      <point x="1276" y="1070" type="qcurve" smooth="yes"/>
      <point x="1276" y="1054" type="line" smooth="yes"/>
      <point x="1276.0" y="819.0"/>
      <point x="1031.0" y="603.0"/>
    </contour>
    <contour>
      <point x="886" y="846" type="line"/>
      <point x="1430" y="0" type="line"/>
      <point x="912" y="0" type="line"/>
      <point x="554" y="624" type="line"/>
    </contour>
  </outline>
</glyph>
<glyph name="grave" format="2">
  <advance width="1000"/>
  <unicode hex="0060"/>
  <outline>
    <contour>
      <point x="586.0" y="1493.0" type="line"/>
      <point x="850.0" y="1065.0" type="line"/>
      <point x="398.0" y="1065.0" type="line"/>
      <point x="76.0" y="1493.0" type="line"/>
    </contour>
  </outline>
</glyph>
<glyph name="c" format="2">
  <advance width="1057"/>
  <unicode hex="0063"/>
  <outline>
    <contour>
      <point x="1046.0" y="403.0" type="line"/>
      <point x="1043" y="337.0" type="line" smooth="yes"/>
      <point x="1036" y="180"/>
      <point x="772" y="-25.0"/>
      <point x="562" y="-25.0" type="qcurve" smooth="yes"/>
      <point x="555" y="-25.0" type="line" smooth="yes"/>
      <point x="326" y="-25.0"/>
      <point x="22" y="258.0"/>
      <point x="22" y="484.0" type="qcurve" smooth="yes"/>
      <point x="22" y="519.0" type="line" smooth="yes"/>
      <point x="22" y="745.0"/>
      <point x="317" y="1040.0"/>
      <point x="541" y="1040.0" type="qcurve" smooth="yes"/>
      <point x="564" y="1040.0" type="line" smooth="yes"/>
      <point x="781" y="1040.0"/>
      <point x="1028" y="831.0"/>
      <point x="1042" y="655.0" type="qcurve" smooth="yes"/>
      <point x="1044" y="578.0" type="line"/>
      <point x="663" y="578.0" type="line"/>
      <point x="662.0" y="662" type="line" smooth="yes"/>
      <point x="661" y="715"/>
      <point x="616.0" y="773"/>
      <point x="571.0" y="773" type="qcurve" smooth="yes"/>
      <point x="565.0" y="773" type="line" smooth="yes"/>
      <point x="518.0" y="773"/>
      <point x="464" y="677"/>
      <point x="464.0" y="602" type="qcurve" smooth="yes"/>
      <point x="464.0" y="420" type="line" smooth="yes"/>
      <point x="464.0" y="332"/>
      <point x="519.0" y="225"/>
      <point x="567.0" y="225" type="qcurve" smooth="yes"/>
      <point x="572.0" y="225" type="line" smooth="yes"/>
      <point x="618.0" y="225"/>
      <point x="660.0" y="293"/>
      <point x="664.0" y="346" type="qcurve" smooth="yes"/>
      <point x="665" y="405.0" type="line"/>
    </contour>
  </outline>
</glyph>
<glyph name="l" format="2">
  <advance width="572"/>
  <unicode hex="006C"/>
  <outline>
    <contour>
      <point x="76" y="293" type="qcurve" smooth="yes"/>
      <point x="76" y="1500" type="line"/>
      <point x="496" y="1500" type="line"/>
      <point x="496" y="0" type="line"/>
      <point x="292" y="0"/>
      <point x="76" y="121.0"/>
    </contour>
    <contour>
      <point x="447" y="30" type="line"/>
      <point x="306" y="20" type="line"/>
      <point x="246" y="345" type="line"/>
      <point x="447" y="355" type="line"/>
    </contour>
  </outline>
</glyph>
<glyph name="m" format="2">
  <advance width="1846"/>
  <unicode hex="006D"/>
  <outline>
    <contour>
      <point x="80" y="0" type="line"/>
      <point x="80" y="1000" type="line"/>
      <point x="500" y="1000" type="line"/>
      <point x="500" y="0" type="line"/>
    </contour>
    <contour>
      <point x="406" y="673" type="line"/>
      <point x="428" y="792"/>
      <point x="590" y="1040"/>
      <point x="751" y="1040.0" type="qcurve" smooth="yes"/>
      <point x="926" y="1040.0"/>
      <point x="1135" y="834"/>
      <point x="1135" y="660" type="qcurve" smooth="yes"/>
      <point x="1135" y="0" type="line"/>
      <point x="716" y="0" type="line"/>
      <point x="716.0" y="620" type="line" smooth="yes"/>
      <point x="716" y="663"/>
      <point x="676" y="710"/>
      <point x="632" y="710" type="qcurve" smooth="yes"/>
      <point x="575" y="710"/>
      <point x="483" y="662"/>
      <point x="428" y="599" type="qcurve"/>
    </contour>
    <contour>
      <point x="1032" y="757" type="line"/>
      <point x="1054" y="849"/>
      <point x="1250" y="1040.0"/>
      <point x="1384" y="1040.0" type="qcurve" smooth="yes"/>
      <point x="1563" y="1040"/>
      <point x="1773" y="834"/>
      <point x="1773" y="660" type="qcurve" smooth="yes"/>
      <point x="1773" y="0" type="line"/>
      <point x="1353" y="0" type="line"/>
      <point x="1353.0" y="620" type="line" smooth="yes"/>
      <point x="1353" y="663"/>
      <point x="1313" y="710"/>
      <point x="1269" y="710" type="qcurve" smooth="yes"/>
      <point x="1212" y="710"/>
      <point x="1120" y="662"/>
      <point x="1065" y="599" type="qcurve"/>
    </contour>
  </outline>
</glyph>
<glyph name="p" format="2">
  <advance width="1185"/>
  <unicode hex="0070"/>
  <outline>
    <contour>
      <point x="80" y="-500" type="line"/>
      <point x="80" y="1000" type="line"/>
      <point x="500" y="1000" type="line"/>
      <point x="500" y="-500" type="line"/>
    </contour>
    <contour>
      <point x="439.0" y="740" type="line" smooth="yes"/>
      <point x="439.0" y="870"/>
      <point x="620.0" y="1040"/>
      <point x="765.0" y="1040" type="qcurve" smooth="yes"/>
      <point x="771" y="1040.0" type="line" smooth="yes"/>
      <point x="935.0" y="1040.0"/>
      <point x="1140.0" y="755.0"/>
      <point x="1140" y="519.0" type="qcurve" smooth="yes"/>
      <point x="1140" y="484.0" type="line" smooth="yes"/>
      <point x="1140.0" y="250.0"/>
      <point x="936.0" y="-25.0"/>
      <point x="774" y="-25.0" type="qcurve" smooth="yes"/>
      <point x="758" y="-25.0" type="line" smooth="yes"/>
      <point x="617" y="-25.0"/>
      <point x="439" y="79.0"/>
      <point x="439" y="162.0" type="qcurve" smooth="yes"/>
    </contour>
    <contour>
      <point x="486.0" y="598" type="qcurve" smooth="yes"/>
      <point x="486.0" y="393" type="line" smooth="yes"/>
      <point x="486.0" y="312"/>
      <point x="549.0" y="221.0"/>
      <point x="602.0" y="221.0" type="qcurve" smooth="yes"/>
      <point x="605.0" y="221.0" type="line" smooth="yes"/>
      <point x="659.0" y="221.0"/>
      <point x="720.0" y="316"/>
      <point x="720.0" y="393" type="qcurve" smooth="yes"/>
      <point x="720.0" y="598" type="line" smooth="yes"/>
      <point x="720.0" y="678"/>
      <point x="660.0" y="780.0"/>
      <point x="605.0" y="780.0" type="qcurve" smooth="yes"/>
      <point x="602.0" y="780.0" type="line" smooth="yes"/>
      <point x="551.0" y="780.0"/>
      <point x="486.0" y="701"/>
    </contour>
  </outline>
</glyph>
<glyph name="q" format="2">
  <advance width="1185"/>
  <unicode hex="0071"/>
  <outline>
    <contour>
      <point x="1105" y="-500" type="line"/>
      <point x="685" y="-500" type="line"/>
      <point x="685" y="1000" type="line"/>
      <point x="1105" y="1000" type="line"/>
    </contour>
    <contour>
      <point x="723.0" y="740.0" type="qcurve" smooth="yes"/>
      <point x="723.0" y="236.0" type="line" smooth="yes"/>
      <point x="723.0" y="120.0"/>
      <point x="539.0" y="-25.0"/>
      <point x="394.0" y="-25.0" type="qcurve" smooth="yes"/>
      <point x="388.0" y="-25.0" type="line" smooth="yes"/>
      <point x="229" y="-25"/>
      <point x="22.0" y="258.0"/>
      <point x="22.0" y="484.0" type="qcurve" smooth="yes"/>
      <point x="22.0" y="519.0" type="line" smooth="yes"/>
      <point x="22.0" y="745.0"/>
      <point x="232.0" y="1040.0"/>
      <point x="391.0" y="1040.0" type="qcurve" smooth="yes"/>
      <point x="397.0" y="1040.0" type="line" smooth="yes"/>
      <point x="542.0" y="1040.0"/>
      <point x="723.0" y="870.0"/>
    </contour>
    <contour>
      <point x="689" y="598.0" type="line" smooth="yes"/>
      <point x="689" y="701.0"/>
      <point x="621" y="780.0"/>
      <point x="567" y="780.0" type="qcurve" smooth="yes"/>
      <point x="564" y="780.0" type="line" smooth="yes"/>
      <point x="505" y="780.0"/>
      <point x="442.0" y="678.0"/>
      <point x="442.0" y="598.0" type="qcurve" smooth="yes"/>
      <point x="442.0" y="393.0" type="line" smooth="yes"/>
      <point x="442.0" y="316.0"/>
      <point x="506" y="221.0"/>
      <point x="564" y="221.0" type="qcurve" smooth="yes"/>
      <point x="567" y="221.0" type="line" smooth="yes"/>
      <point x="623" y="221.0"/>
      <point x="689" y="312.0"/>
      <point x="689" y="393.0" type="qcurve" smooth="yes"/>
    </contour>
  </outline>
</glyph>
<glyph name="t" format="2">
  <advance width="710"/>
  <unicode hex="0074"/>
  <outline>
    <contour>
      <point x="647" y="701" type="line"/>
      <point x="6" y="701" type="line"/>
      <point x="6" y="1000" type="line"/>
      <point x="647" y="1000" type="line"/>
    </contour>
    <contour>
      <point x="505" y="362" type="line" smooth="yes"/>
      <point x="505" y="328"/>
      <point x="554" y="286"/>
      <point x="581" y="286" type="qcurve" smooth="yes"/>
      <point x="611" y="286"/>
      <point x="648" y="298"/>
      <point x="661" y="304" type="qcurve"/>
      <point x="744" y="63" type="line"/>
      <point x="708" y="41"/>
      <point x="544" y="-18"/>
      <point x="403" y="-18" type="qcurve" smooth="yes"/>
      <point x="249" y="-18"/>
      <point x="84" y="165"/>
      <point x="85" y="326" type="qcurve" smooth="yes"/>
      <point x="85" y="1213" type="line"/>
      <point x="505" y="1213" type="line"/>
    </contour>
  </outline>
</glyph>
<glyph name="v" format="2">
  <advance width="936"/>
  <unicode hex="0076"/>
  <outline>
    <contour>
      <point x="266" y="0" type="line"/>
      <point x="-40" y="1000" type="line"/>
      <point x="368" y="1000" type="line"/>
      <point x="472" y="502" type="line"/>
      <point x="579" y="1000" type="line"/>
      <point x="976" y="1000" type="line"/>
      <point x="666" y="0" type="line"/>
    </contour>
  </outline>
</glyph>
<glyph name="x" format="2">
  <advance width="870"/>
  <unicode hex="0078"/>
  <outline>
    <contour>
      <point x="-50" y="0" type="line"/>
      <point x="540" y="1000" type="line"/>
      <point x="900" y="1000" type="line"/>
      <point x="310" y="0" type="line"/>
    </contour>
    <contour>
      <point x="511" y="0" type="line"/>
      <point x="-49" y="1000" type="line"/>
      <point x="351" y="1000" type="line"/>
      <point x="920" y="0" type="line"/>
    </contour>
  </outline>
</glyph>
